<svg id="Layer_1" data-name="Layer 1" xmlns="http://www.w3.org/2000/svg" xmlns:xlink="http://www.w3.org/1999/xlink" viewBox="0 0 45 45"><defs><style>.cls-1{fill:url(#linear-gradient);}.cls-2{fill:#001f38;}</style><linearGradient id="linear-gradient" x1="-647.5" y1="2528.56" x2="-611.5" y2="2488.06" gradientTransform="matrix(1, 0, 0, -1, 652, 2530.81)" gradientUnits="userSpaceOnUse"><stop offset="0" stop-color="#d4e7ff"/><stop offset="1" stop-color="#ccc8ff"/></linearGradient></defs><title>svg logo sora save app</title><rect class="cls-1" width="45" height="45" rx="15.75"/><path class="cls-2" d="M27.16,21.77l.7-.67,2.9-2.83a1.56,1.56,0,0,1,.61-.39,1,1,0,0,1,.93.17,6,6,0,0,1,1.43,1.59.91.91,0,0,1-.14,1.18c-.79.9-1.66,1.72-2.51,2.57l-5.4,5.37a2.69,2.69,0,0,1-.51.44,1.23,1.23,0,0,1-1.44,0,3.38,3.38,0,0,1-.35-.31l-7-7-.79-.8-.2-.22a1,1,0,0,1-.1-1.21,5.08,5.08,0,0,1,1-1.24l.32-.29A1,1,0,0,1,18,18a10.55,10.55,0,0,1,.78.72c.87.83,1.7,1.71,2.58,2.53l.46.42c.08.07.11.06.12,0a.22.22,0,0,0,0-.08l0-6.43c0-1.9,0-3.81,0-5.72a1.52,1.52,0,0,1,.11-.6,1.09,1.09,0,0,1,.91-.67l.42,0,2.53,0a1.18,1.18,0,0,1,1.2,1.18c0,.77,0,1.53,0,2.3,0,1.8,0,3.6,0,5.4,0,1.54,0,3.08,0,4.62Z" transform="translate(-2 -1.19)"/><path class="cls-2" d="M11.53,36.61h-.11q-.11,0-.09-.09V29.47c0-.1,0-.11.11-.07.44.21.89.41,1.34.59a29.42,29.42,0,0,0,5.57,1.72,30.58,30.58,0,0,0,7,.62,27.76,27.76,0,0,0,3-.25,29.35,29.35,0,0,0,4.82-1,30.22,30.22,0,0,0,4.35-1.71c.13-.07.13-.07.13.07q0,3.51,0,7a.19.19,0,0,1,0,.12.23.23,0,0,1-.12,0C37.25,36.54,11.66,36.59,11.53,36.61Z" transform="translate(-2 -1.19)"/></svg>
